<?xml version="1.0" encoding="UTF-8"?>
<svg version="1.1" xmlns="http://www.w3.org/2000/svg" width="500" height="500">
<path d="M0 0 C165 0 330 0 500 0 C500 165 500 330 500 500 C335 500 170 500 0 500 C0 335 0 170 0 0 Z " fill="#FEFCFC" transform="translate(0,0)"/>
<path d="M0 0 C0.33 0.99 0.66 1.98 1 3 C0.67 3.66 0.34 4.32 0 5 C-0.20142494 7.24444937 -0.31321921 9.4973775 -0.375 11.75 C-0.42398438 12.96171875 -0.47296875 14.1734375 -0.5234375 15.421875 C0.32508734 21.22223885 3.52719592 23.86617463 7.953125 27.2734375 C26.5011978 39.09673509 43.25046665 46.41921659 65.49658203 41.56591797 C67.11768299 41.1900716 68.73845505 40.81280361 70.35888672 40.43408203 C77.93844974 38.6895669 84.80060243 38.53591366 92.5 39.5625 C95.9652711 40.2512738 95.9652711 40.2512738 99 39 C106.20474404 38.24873609 112.67871631 39.26474083 119.625 41 C140.23993293 46.00570338 155.96324796 41.61180049 174.06005859 31.18457031 C179.43702798 27.90127614 184.48862086 24.26706872 188 19 C188.28117324 15.73729925 188.28117324 15.73729925 188.1875 12.125 C188.18105469 10.91070312 188.17460937 9.69640625 188.16796875 8.4453125 C188.02448639 5.50225573 187.67933242 2.85863082 187 0 C191.91972401 4.35746983 196.06752992 9.57880564 197.453125 16.1484375 C197.66563709 20.11027001 196.93533113 23.25343181 194.48828125 26.3984375 C182.94986453 38.81510641 168.22776035 48.92603338 154 58 C154.99 59.98 154.99 59.98 156 62 C156.556875 61.505 157.11375 61.01 157.6875 60.5 C160.38162983 58.75245633 161.85375007 58.73781251 165 59 C165 61.31 165 63.62 165 66 C162.36 66 159.72 66 157 66 C157 71.28 157 76.56 157 82 C158.65 82.33 160.3 82.66 162 83 C162 83.99 162 84.98 162 86 C156.39 86 150.78 86 145 86 C145.33 84.68 145.66 83.36 146 82 C146.66 82 147.32 82 148 82 C147.88660796 79.35319096 147.75987127 76.70822482 147.625 74.0625 C147.57859375 72.93038086 147.57859375 72.93038086 147.53125 71.77539062 C147.4273685 69.84492605 147.22104386 67.92057919 147 66 C146.34 65.67 145.68 65.34 145 65 C145 64.34 145 63.68 145 63 C142.03 63.99 142.03 63.99 139 65 C139.33 70.94 139.66 76.88 140 83 C140.66 83 141.32 83 142 83 C141.67 84.98 141.34 86.96 141 89 C134.03863461 89.32378444 125.28519475 89.14259737 119 86 C118.97421875 86.59425781 118.9484375 87.18851562 118.921875 87.80078125 C118.37329736 95.81749546 116.70490435 104.94638511 111 111 C107.3125 111.25 107.3125 111.25 104 111 C104.804375 111.309375 105.60875 111.61875 106.4375 111.9375 C109 113 109 113 110 114 C110.38121554 118.95580203 110.23346983 122.1198362 107 126 C102.40294293 128.80027223 98.85275097 129.43206021 93.5 129.4375 C92.2315625 129.45683594 90.963125 129.47617187 89.65625 129.49609375 C85.4404746 128.92408149 83.29916613 127.62948464 80 125 C77.42182804 121.60150059 77.69273 118.14814495 78 114 C80.1385485 111.8614515 81.13275314 111.57344937 84 111 C82.948125 111.165 81.89625 111.33 80.8125 111.5 C77 111 77 111 75.4921875 109.4296875 C70.56925991 101.67681351 69.7101856 95.0486496 70 86 C68.74896484 86.2165625 68.74896484 86.2165625 67.47265625 86.4375 C60.88356061 87.52436114 54.67556419 88.22629031 48 88 C47.55919644 81.60834844 48.34640465 79.36621817 52 74 C52.33524876 70.24870163 52.33524876 70.24870163 52 67 C49.69 66.01 47.38 65.02 45 64 C44.505 65.485 44.505 65.485 44 67 C42.35 67 40.7 67 39 67 C38.34 65.68 37.68 64.36 37 63 C35.35 63 33.7 63 32 63 C32.08175018 64.9133966 32.08175018 64.9133966 33 67 C35.49582999 68.72557593 35.49582999 68.72557593 38.5 70.125 C43.90737564 72.81475129 43.90737564 72.81475129 45 75 C45.46117647 81.34117647 45.46117647 81.34117647 43.6875 83.875 C39.91729139 86.3884724 36.32889285 86.13408251 31.9375 86.125 C30.68839844 86.12757813 29.43929687 86.13015625 28.15234375 86.1328125 C25 86 25 86 23 85 C23 82.69 23 80.38 23 78 C24.65 78.33 26.3 78.66 28 79 C28.33 79.99 28.66 80.98 29 82 C31.31 82 33.62 82 36 82 C36 81.01 36 80.02 36 79 C33.86852908 77.43904605 33.86852908 77.43904605 31.1875 76.0625 C27.57254431 74.10635515 25.17935861 72.52915491 23 69 C22.4375 66.5625 22.4375 66.5625 23 64 C26.64407915 60.27117482 28.81933471 58.81196117 34 58 C32.44152344 56.948125 32.44152344 56.948125 30.8515625 55.875 C22.97863775 50.53242172 15.30311082 45.1105344 8 39 C6.88197748 38.09057134 5.76345418 37.18175811 4.64453125 36.2734375 C3.47072704 35.30805368 2.29754507 34.34191277 1.125 33.375 C0.57690674 32.9315625 0.02881348 32.488125 -0.53588867 32.03125 C-5.25218925 28.09335382 -8.59984247 24.40094517 -9.625 18.25 C-9.28910609 11.26340661 -4.08656679 5.35057995 0 0 Z " fill="#EE3814" transform="translate(156,139)"/>
<path d="M0 0 C3.37483413 -0.08767555 6.74937215 -0.14061628 10.125 -0.1875 C11.55199219 -0.22520508 11.55199219 -0.22520508 13.0078125 -0.26367188 C18.42305142 -0.32008061 22.35687306 -0.14362529 27 3 C28.59387042 6.18774083 28.52663137 9.53927959 28 13 C26 15.5 26 15.5 24 17 C24.78375 17.433125 25.5675 17.86625 26.375 18.3125 C29 20 29 20 31 23 C31.22375221 26.11531922 30.85230414 28.99793511 30 32 C24.99203412 37.27154303 19.69613985 37.24634334 12.8125 37.71875 C9.9224826 37.90347198 9.9224826 37.90347198 7 39 C5.43881572 39.06740865 3.8749748 39.08514456 2.3125 39.0625 C1.10013672 39.04896484 1.10013672 39.04896484 -0.13671875 39.03515625 C-0.75160156 39.02355469 -1.36648437 39.01195312 -2 39 C-2.50526316 31.67368421 -2.50526316 31.67368421 -0.03125 28.375 C2.73620179 23.77677241 2.66730226 19.89510128 2.75 14.625 C2.77964844 13.69816406 2.80929688 12.77132812 2.83984375 11.81640625 C2.91011861 9.54418565 2.96302048 7.27296541 3 5 C2.01 5 1.02 5 0 5 C0 3.35 0 1.7 0 0 Z " fill="#0E0301" transform="translate(206,188)"/>
<path d="M0 0 C3.37483413 -0.08767555 6.74937215 -0.14061628 10.125 -0.1875 C11.55199219 -0.22520508 11.55199219 -0.22520508 13.0078125 -0.26367188 C18.4185834 -0.32003407 22.37940796 -0.16650796 27 3 C29.35620437 6.53430656 29.48991613 7.83571287 29 12 C27 15.375 27 15.375 25 18 C25.61875 18.28875 26.2375 18.5775 26.875 18.875 C29 20 29 20 31 22 C31.57887875 30.9726206 31.57887875 30.9726206 29 34 C22.86216687 37.40249445 17.47474377 37.362892 10.5625 37.1875 C9.54478516 37.17396484 8.52707031 37.16042969 7.47851562 37.14648438 C4.98511786 37.1113661 2.49284488 37.06218559 0 37 C0 35.68 0 34.36 0 33 C1.32 33 2.64 33 4 33 C4 23.43 4 13.86 4 4 C2.68 4 1.36 4 0 4 C0 2.68 0 1.36 0 0 Z " fill="#0A0A0A" transform="translate(75,188)"/>
<path d="M0 0 C3.63 0 7.26 0 11 0 C11.33 3.63 11.66 7.26 12 11 C13.8253125 10.9071875 13.8253125 10.9071875 15.6875 10.8125 C19.61462154 10.81943838 21.86586973 11.49269579 25 14 C28.41201034 17.81682512 28.45626044 20.57262087 28.28125 25.53125 C27.88886087 28.97555461 27.01625665 31.17724068 25 34 C19.60443063 38.15908473 15.77351375 39.33867569 9 39 C6.69 38.34 4.38 37.68 2 37 C2 26.44 2 15.88 2 5 C1.01 4.67 0.02 4.34 -1 4 C-0.67 2.68 -0.34 1.36 0 0 Z " fill="#0F0F0F" transform="translate(397,187)"/>
<path d="M0 0 C3.07365786 1.80803404 4.43019732 2.86039464 6 6 C6.15004973 7.3734635 6.24838006 8.7528526 6.31640625 10.1328125 C6.35830078 10.93847656 6.40019531 11.74414062 6.44335938 12.57421875 C6.48267578 13.41597656 6.52199219 14.25773438 6.5625 15.125 C6.60568359 15.97449219 6.64886719 16.82398438 6.69335938 17.69921875 C6.79954236 19.79928223 6.90028497 21.89961948 7 24 C7.66 24 8.32 24 9 24 C8.67 25.98 8.34 27.96 8 30 C-0.39978624 30.39068773 -10.0052915 30.01245356 -17 25 C-18.44430855 22.11138291 -18.37688506 20.20352299 -18 17 C-14.85755461 12.93330596 -11.97807988 11.16508253 -7 10 C-5.68 10 -4.36 10 -3 10 C-3.33 8.68 -3.66 7.36 -4 6 C-7.96 6 -11.92 6 -16 6 C-16.33 4.68 -16.66 3.36 -17 2 C-11.39894473 -0.57401437 -6.07349843 -0.70563467 0 0 Z " fill="#0C0302" transform="translate(289,198)"/>
<path d="M0 0 C3.07365786 1.80803404 4.43019732 2.86039464 6 6 C6.08308638 7.37548156 6.10736016 8.75485796 6.09765625 10.1328125 C6.09443359 10.93847656 6.09121094 11.74414062 6.08789062 12.57421875 C6.07951172 13.41597656 6.07113281 14.25773438 6.0625 15.125 C6.05798828 15.97449219 6.05347656 16.82398438 6.04882812 17.69921875 C6.03702874 19.79950909 6.01909306 21.8997633 6 24 C6.99 24 7.98 24 9 24 C9 24.99 9 25.98 9 27 C7.58456585 27.19658808 6.16755969 27.38187546 4.75 27.5625 C3.96109375 27.66691406 3.1721875 27.77132812 2.359375 27.87890625 C-0.01296453 28.0006654 -1.72106426 27.57947298 -4 27 C-4.66 27.33 -5.32 27.66 -6 28 C-10.6478538 28.41314256 -13.24440152 27.78987316 -17 25 C-18.44430855 22.11138291 -18.37688506 20.20352299 -18 17 C-15.827365 14.42714276 -14.02006162 12.51003081 -11 11 C-8.3276379 10.86584528 -5.67749512 10.95681459 -3 11 C-3.33 9.35 -3.66 7.7 -4 6 C-7.96 6 -11.92 6 -16 6 C-16.33 4.68 -16.66 3.36 -17 2 C-11.39894473 -0.57401437 -6.07349843 -0.70563467 0 0 Z " fill="#111010" transform="translate(386,198)"/>
<path d="M0 0 C0.33 6.93 0.66 13.86 1 21 C5.47702364 22.06537205 5.47702364 22.06537205 8 22 C7.88658509 19.51979503 7.75985314 17.04155031 7.625 14.5625 C7.5940625 13.85544922 7.563125 13.14839844 7.53125 12.41992188 C7.42719371 10.60760812 7.22080108 8.80182012 7 7 C6.34 6.67 5.68 6.34 5 6 C5 4.68 5 3.36 5 2 C8.87684087 0.80712589 11.91621923 0 16 0 C16 7.92 16 15.84 16 24 C16.66 24 17.32 24 18 24 C18 24.99 18 25.98 18 27 C10.375 28.25 10.375 28.25 7 26 C6.46375 26.33 5.9275 26.66 5.375 27 C2.27953927 28.30335189 0.33425359 28.47632194 -3 28 C-5.7164385 25.99047093 -7.71527668 24.42465761 -8.40063477 20.99536133 C-8.49171382 18.70671478 -8.43709914 16.47437348 -8.3125 14.1875 C-8.28994141 13.39923828 -8.26738281 12.61097656 -8.24414062 11.79882812 C-8.18554161 9.86506071 -8.09586827 7.93227833 -8 6 C-8.66 6 -9.32 6 -10 6 C-9.67 4.35 -9.34 2.7 -9 1 C-5.72921858 0.03087958 -3.60964568 0 0 0 Z " fill="#0E0D0D" transform="translate(120,198)"/>
<path d="M0 0 C2.93423195 1.79646854 4.47205355 2.9441071 6 6 C6.13559318 9.00474497 6.04299016 11.99068847 6 15 C0.72 15 -4.56 15 -10 15 C-9.34 16.98 -8.68 18.96 -8 21 C-5.35541621 22.32229189 -3.32238699 22.09677194 -0.375 22.0625 C0.62789063 22.05347656 1.63078125 22.04445312 2.6640625 22.03515625 C3.82035156 22.01775391 3.82035156 22.01775391 5 22 C4.66015625 23.921875 4.66015625 23.921875 4 26 C-0.44220175 28.16692768 -5.13467562 28.78660933 -10 28 C-14.3604287 25.77864953 -17.20212362 23.59457298 -19 19 C-19.68426057 13.95674616 -19.5739862 10.16923116 -17.3125 5.5625 C-12.22961627 -0.06988467 -7.42143801 -1.13332305 0 0 Z " fill="#0E0301" transform="translate(260,198)"/>
<path d="M0 0 C5.28 0 10.56 0 16 0 C16 1.65 16 3.3 16 5 C14.35 5 12.7 5 11 5 C11 14.24 11 23.48 11 33 C13.97 33 16.94 33 20 33 C20.66 31.68 21.32 30.36 22 29 C22.33 28.34 22.66 27.68 23 27 C24.32 27.33 25.64 27.66 27 28 C26.67 30.97 26.34 33.94 26 37 C17.42 37 8.84 37 0 37 C0 35.68 0 34.36 0 33 C0.99 33 1.98 33 3 33 C3 23.76 3 14.52 3 5 C2.01 5 1.02 5 0 5 C0 3.35 0 1.7 0 0 Z " fill="#070707" transform="translate(337,188)"/>
<path d="M0 0 C0 2.31 0 4.62 0 7 C-1.65 7 -3.3 7 -5 7 C-5.66 5.68 -6.32 4.36 -7 3 C-8.65 3 -10.3 3 -12 3 C-11.91824982 4.9133966 -11.91824982 4.9133966 -11 7 C-8.50417001 8.72557593 -8.50417001 8.72557593 -5.5 10.125 C-0.09262436 12.81475129 -0.09262436 12.81475129 1 15 C1.46117647 21.34117647 1.46117647 21.34117647 -0.3125 23.875 C-4.08270861 26.3884724 -7.67110715 26.13408251 -12.0625 26.125 C-13.31160156 26.12757813 -14.56070313 26.13015625 -15.84765625 26.1328125 C-19 26 -19 26 -21 25 C-21 22.69 -21 20.38 -21 18 C-19.35 18.33 -17.7 18.66 -16 19 C-15.67 19.99 -15.34 20.98 -15 22 C-12.69 22 -10.38 22 -8 22 C-8 21.01 -8 20.02 -8 19 C-10.13147092 17.43904605 -10.13147092 17.43904605 -12.8125 16.0625 C-16.42745569 14.10635515 -18.82064139 12.52915491 -21 9 C-21.5625 6.5625 -21.5625 6.5625 -21 4 C-15.50271105 -2.68589197 -7.91704432 -2.26732255 0 0 Z " fill="#0D0C0C" transform="translate(200,199)"/>
<path d="M0 0 C0 11.22 0 22.44 0 34 C1.32 34.33 2.64 34.66 4 35 C4 35.99 4 36.98 4 38 C-1.28 38 -6.56 38 -12 38 C-11.67 36.68 -11.34 35.36 -11 34 C-10.34 34 -9.68 34 -9 34 C-9 24.43 -9 14.86 -9 5 C-9.99 4.67 -10.98 4.34 -12 4 C-12 3.01 -12 2.02 -12 1 C-7.77370786 -0.40876405 -4.89096249 0 0 0 Z " fill="#121212" transform="translate(172,187)"/>
<path d="M0 0 C0.33 11.22 0.66 22.44 1 34 C1.99 34.33 2.98 34.66 4 35 C4 35.99 4 36.98 4 38 C-0.95 38 -5.9 38 -11 38 C-11 37.01 -11 36.02 -11 35 C-10.01 34.505 -10.01 34.505 -9 34 C-8.67 24.43 -8.34 14.86 -8 5 C-8.99 4.67 -9.98 4.34 -11 4 C-11 3.01 -11 2.02 -11 1 C-7.05979642 -0.26086514 -4.52419701 0 0 0 Z " fill="#010101" transform="translate(153,187)"/>
<path d="M0 0 C0.33 0.99 0.66 1.98 1 3 C1.556875 2.505 2.11375 2.01 2.6875 1.5 C5.38162983 -0.24754367 6.85375007 -0.26218749 10 0 C10 2.31 10 4.62 10 7 C7.36 7 4.72 7 2 7 C2 12.28 2 17.56 2 23 C3.65 23.33 5.3 23.66 7 24 C7 24.99 7 25.98 7 27 C1.39 27 -4.22 27 -10 27 C-9.67 25.68 -9.34 24.36 -9 23 C-8.34 23 -7.68 23 -7 23 C-7.11339204 20.35319096 -7.24012873 17.70822482 -7.375 15.0625 C-7.4059375 14.30775391 -7.436875 13.55300781 -7.46875 12.77539062 C-7.5726315 10.84492605 -7.77895614 8.92057919 -8 7 C-8.66 6.67 -9.32 6.34 -10 6 C-10 4.68 -10 3.36 -10 2 C-3.375 0 -3.375 0 0 0 Z " fill="#0F0F0F" transform="translate(311,198)"/>
<path d="M0 0 C2.375 -0.125 2.375 -0.125 5 0 C7 2 7 2 7 5 C8.65 5 10.3 5 12 5 C12.33 3.68 12.66 2.36 13 1 C15.64 2.32 18.28 3.64 21 5 C21.47234542 10.90431774 20.23532695 13.19602969 17 18 C16.38767072 20.69914748 16.19135842 23.22530294 16 26 C17.98 26 19.96 26 22 26 C22 26.33 22 26.66 22 27 C19.69 27 17.38 27 15 27 C14.67 24.69 14.34 22.38 14 20 C13.67 20 13.34 20 13 20 C12.67 17.03 12.34 14.06 12 11 C11.34 10.773125 10.68 10.54625 10 10.3125 C6.07265467 8.59428642 2.58739822 6.33225393 -1 4 C-0.67 2.68 -0.34 1.36 0 0 Z " fill="#F5ECEA" transform="translate(188,201)"/>
<path d="M0 0 C4.7109375 -0.2421875 4.7109375 -0.2421875 7.3125 1.9375 C9.58845306 6.06793333 9.70540949 9.37835163 9 14 C7.5 17.5625 7.5 17.5625 6 20 C4.33388095 20.042721 2.66617115 20.04063832 1 20 C0 19 0 19 -0.11352539 17.14233398 C-0.10828857 16.35157471 -0.10305176 15.56081543 -0.09765625 14.74609375 C-0.09443359 13.89208984 -0.09121094 13.03808594 -0.08789062 12.15820312 C-0.07951172 11.26037109 -0.07113281 10.36253906 -0.0625 9.4375 C-0.05798828 8.53580078 -0.05347656 7.63410156 -0.04882812 6.70507812 C-0.03700225 4.46998686 -0.0205222 2.23502563 0 0 Z " fill="#F6F4F4" transform="translate(408,202)"/>
<path d="M0 0 C7 0 7 0 8.9375 1 C10.65886567 4.24021772 10.52960415 7.41957756 10 11 C8.9375 13 8.9375 13 7 14 C4.69 14 2.38 14 0 14 C0 9.38 0 4.76 0 0 Z " fill="#F7F5F5" transform="translate(87,208)"/>
<path d="M0 0 C7 0 7 0 8.9375 1.0625 C10.61903731 4.12883274 10.36051184 6.57513751 10 10 C8.9375 12.4375 8.9375 12.4375 7 14 C4.69 14 2.38 14 0 14 C0 9.38 0 4.76 0 0 Z " fill="#E93512" transform="translate(218,208)"/>
<path d="M0 0 C6 0 6 0 7.875 1.125 C9.51151479 3.85252465 9.32502803 5.87973093 9 9 C8.01 10.485 8.01 10.485 7 12 C3.375 12.1875 3.375 12.1875 0 12 C0 8.04 0 4.08 0 0 Z " fill="#F5F3F3" transform="translate(87,192)"/>
<path d="M0 0 C1.98 0 3.96 0 6 0 C8 2 8 2 8.265625 3.875 C8.26046875 4.57625 8.2553125 5.2775 8.25 6 C8.25515625 6.70125 8.2603125 7.4025 8.265625 8.125 C8 10 8 10 6 12 C4.02 12 2.04 12 0 12 C0 8.04 0 4.08 0 0 Z " fill="#ED3511" transform="translate(218,192)"/>
<path d="M0 0 C0.09765625 6.15234375 0.09765625 6.15234375 0 8 C-1 9 -1 9 -3.4375 9.1875 C-6 9 -6 9 -8 7 C-7.8125 4.5 -7.8125 4.5 -7 2 C-4 0 -4 0 0 0 Z " fill="#D32F0F" transform="translate(287,212)"/>
<path d="M0 0 C0.33 0 0.66 0 1 0 C1 2.64 1 5.28 1 8 C0.01 8 -0.98 8 -2 8 C-2 9.32 -2 10.64 -2 12 C1.3 12 4.6 12 8 12 C4.79619983 14.13586678 3.98060033 14.23132175 0.3125 14.125 C-0.89986328 14.09792969 -0.89986328 14.09792969 -2.13671875 14.0703125 C-3.05904297 14.03550781 -3.05904297 14.03550781 -4 14 C-4.42927453 7.77551932 -3.99400188 4.84121441 0 0 Z " fill="#E43716" transform="translate(208,213)"/>
<path d="M0 0 C1 1 1 1 1.0625 4.0625 C1.041875 5.031875 1.02125 6.00125 1 7 C-1.64 7 -4.28 7 -7 7 C-6.74438677 4.6568787 -6.40729228 2.32156597 -6 0 C-3.49749232 -1.25125384 -2.59701335 -0.83774624 0 0 Z " fill="#DF3210" transform="translate(257,202)"/>
<path d="M0 0 C1.32 0 2.64 0 4 0 C4 2.97 4 5.94 4 9 C1.625 9.125 1.625 9.125 -1 9 C-1.66 8.34 -2.32 7.68 -3 7 C-2.67028521 3.70285207 -2.3773161 2.3773161 0 0 Z " fill="#F0EEEE" transform="translate(379,212)"/>
<path d="M0 0 C0.33 0.66 0.66 1.32 1 2 C3.97 2 6.94 2 10 2 C10 2.99 10 3.98 10 5 C3.20160929 5.31620422 -3.30983984 4.12676382 -10 3 C-10 2.67 -10 2.34 -10 2 C-6.7 1.34 -3.4 0.68 0 0 Z " fill="#C75741" transform="translate(287,223)"/>
<path d="M0 0 C0.33 0 0.66 0 1 0 C1 2.64 1 5.28 1 8 C-0.65 8 -2.3 8 -4 8 C-2.25 2.25 -2.25 2.25 0 0 Z " fill="#EF3E1C" transform="translate(208,213)"/>
<path d="M0 0 C0.33 0 0.66 0 1 0 C1 1.98 1 3.96 1 6 C-0.65 6.33 -2.3 6.66 -4 7 C-2.68 4.69 -1.36 2.38 0 0 Z " fill="#E4C2BC" transform="translate(225,215)"/>
</svg>
