<svg xmlns="http://www.w3.org/2000/svg" version="1.1" viewBox="54.98 174 417.36 49.07">

<path d="M0 0 C0.33 0 0.66 0 1 0 C0.979375 1.03125 0.95875 2.0625 0.9375 3.125 C1.31345143 5.89132921 1.802282 6.81940397 3.89453125 8.73046875 C9.38663485 12.41919505 14.37310705 15.30106395 21.125 15.1875 C21.97320312 15.18105469 22.82140625 15.17460937 23.6953125 15.16796875 C26.16028247 15.08347963 26.16028247 15.08347963 29 14 C31.65693998 13.903384 34.28140855 13.86073272 36.9375 13.875 C37.65357422 13.87113281 38.36964844 13.86726562 39.10742188 13.86328125 C42.57098166 13.86970119 45.67568807 14.03010053 49 15 C57.35421271 15.99145326 63.94495886 13.39992231 71.0625 9.1875 C73.66101598 6.25369163 73.77837202 3.84155166 74 0 C75.5 1.125 75.5 1.125 77 3 C77.41572666 6.50739504 77.55380657 8.28777595 75.34765625 11.125 C74.59355469 11.74375 73.83945313 12.3625 73.0625 13 C72.24394531 13.67289063 71.42539063 14.34578125 70.58203125 15.0390625 C65.28745842 19.06005427 60.25652747 22.65927119 54 25 C54.495 28.96 54.495 28.96 55 33 C52.0625 32.625 52.0625 32.625 49 32 C48.505 31.01 48.505 31.01 48 30 C47.81824219 31.03060547 47.81824219 31.03060547 47.6328125 32.08203125 C47.46523437 32.98308594 47.29765625 33.88414062 47.125 34.8125 C46.96257812 35.70582031 46.80015625 36.59914062 46.6328125 37.51953125 C46 40 46 40 44 43 C43.61500109 44.65549531 43.27206865 46.3222433 43 48 C41.56589632 48.24954005 40.12739928 48.47392642 38.6875 48.6875 C37.88699219 48.81511719 37.08648437 48.94273437 36.26171875 49.07421875 C34 49 34 49 32.26953125 47.83203125 C30.68921425 45.55151226 30.42388895 43.73307449 30 41 C29.49942135 39.22333485 28.97868117 37.45222122 28.4375 35.6875 C28.16808594 34.80449219 27.89867188 33.92148438 27.62109375 33.01171875 C27.41613281 32.34785156 27.21117188 31.68398437 27 31 C26.01 31.66 25.02 32.32 24 33 C22.68 33 21.36 33 20 33 C20.875 27.25 20.875 27.25 22 25 C21.28585938 24.73703125 20.57171875 24.4740625 19.8359375 24.203125 C12.65293994 21.1557927 3.9747104 16.15990786 -1 10 C-2.0625 6.3125 -2.0625 6.3125 -2 3 C-1.34 2.01 -0.68 1.02 0 0 Z " fill="#F03B19" transform="translate(57,174)" data-index="1"/>
<path d="M0 0 C3.22899426 -0.0875127 6.45768116 -0.14056146 9.6875 -0.1875 C11.05551758 -0.22520508 11.05551758 -0.22520508 12.45117188 -0.26367188 C17.47202952 -0.31844487 20.92233294 -0.2970139 25 3 C26 4 26 4 26.1875 7.8125 C26.1585691 11.03540201 25.82970185 13.25544723 24 16 C24.825 16.70125 25.65 17.4025 26.5 18.125 C29 21 29 21 29.5 24 C28.93080083 27.41519499 28.17229597 29.30335673 26 32 C22.52943537 33.70593956 19.76404257 34.24250359 15.91796875 34.1953125 C14.98662109 34.18886719 14.05527344 34.18242187 13.09570312 34.17578125 C12.13599609 34.15902344 11.17628906 34.14226562 10.1875 34.125 C9.20845703 34.11597656 8.22941406 34.10695312 7.22070312 34.09765625 C4.81354939 34.07417182 2.40690257 34.0413284 0 34 C0.33 32.68 0.66 31.36 1 30 C1.66 30 2.32 30 3 30 C3 21.42 3 12.84 3 4 C2.01 4 1.02 4 0 4 C0 2.68 0 1.36 0 0 Z " fill="#090909" transform="translate(269,183)" data-index="2"/>
<path d="M0 0 C3.20802233 -0.11698258 6.41549025 -0.18750607 9.625 -0.25 C10.98044922 -0.30027344 10.98044922 -0.30027344 12.36328125 -0.3515625 C18.19230794 -0.43665778 21.66623413 -0.06423543 26 4 C27.01096147 6.97576793 26.45957347 8.7829857 26 12 C24.5 14 24.5 14 23 15 C23.804375 15.804375 24.60875 16.60875 25.4375 17.4375 C29 21 29 21 29.3125 23.75 C28.9248155 27.7819188 27.87892796 29.19888091 25 32 C20.17097086 34.73519228 15.06512602 34.2238115 9.6875 34.125 C8.75615234 34.11597656 7.82480469 34.10695312 6.86523438 34.09765625 C4.5765564 34.07418263 2.28841328 34.04134729 0 34 C0.33 32.68 0.66 31.36 1 30 C1.66 30 2.32 30 3 30 C3 21.42 3 12.84 3 4 C2.01 4 1.02 4 0 4 C0 2.68 0 1.36 0 0 Z " fill="#080808" transform="translate(148,183)" data-index="3"/>
<path d="M0 0 C3.3 0 6.6 0 10 0 C10.33 3.3 10.66 6.6 11 10 C12.8253125 9.9071875 12.8253125 9.9071875 14.6875 9.8125 C18.59741696 9.8125 20.87269312 10.51655042 24 13 C26.83852146 17.25778219 26.51245049 21.0036077 26 26 C24.26790237 30.19349952 21.7378994 32.48200083 18 35 C14.7734375 35.42578125 14.7734375 35.42578125 11.375 35.3125 C10.24835938 35.28800781 9.12171875 35.26351562 7.9609375 35.23828125 C5 35 5 35 2 34 C1.97494385 33.14768799 1.9498877 32.29537598 1.92407227 31.41723633 C1.82864431 28.23955034 1.72942876 25.06201106 1.62768555 21.88452148 C1.5845116 20.51217224 1.54282499 19.13977533 1.50268555 17.76733398 C1.44455608 15.78877932 1.3805429 13.8104003 1.31640625 11.83203125 C1.27974854 10.64327393 1.24309082 9.4545166 1.20532227 8.22973633 C1.02453589 5.38595153 0.64190592 2.77093195 0 0 Z " fill="#0B0B0B" transform="translate(446,182)" data-index="4"/>
<path d="M0 0 C1.01964844 -0.03996094 2.03929687 -0.07992187 3.08984375 -0.12109375 C7.25474436 0.66153541 8.6237335 1.99296483 11.0625 5.4375 C11.63893657 8.4086994 11.53910215 11.23809445 11.375 14.25 C11.35244141 15.03826172 11.32988281 15.82652344 11.30664062 16.63867188 C11.24804161 18.57243929 11.15836827 20.50522167 11.0625 22.4375 C12.0525 22.4375 13.0425 22.4375 14.0625 22.4375 C14.0625 23.4275 14.0625 24.4175 14.0625 25.4375 C9.55490348 26.11363948 6.46109365 26.55181039 2.0625 25.4375 C-0.49873371 25.44559237 -3.03997665 25.56454392 -5.59765625 25.6953125 C-7.9375 25.4375 -7.9375 25.4375 -9.71484375 24.14453125 C-11.8015693 21.23111571 -11.42099169 18.88237832 -10.9375 15.4375 C-8.07276392 11.92588804 -5.46412461 11.19395934 -1.125 10.6875 C0.2697304 10.58738885 1.66550686 10.49837116 3.0625 10.4375 C2.4025 8.7875 1.7425 7.1375 1.0625 5.4375 C-4.02053686 5.32429144 -4.02053686 5.32429144 -8.9375 6.4375 C-9.2675 5.1175 -9.5975 3.7975 -9.9375 2.4375 C-6.5890251 0.43805096 -3.87765433 0.08312752 0 0 Z " fill="#0D0D0D" transform="translate(429.9375,191.5625)" data-index="5"/>
<path d="M0 0 C1.39025391 -0.04253906 1.39025391 -0.04253906 2.80859375 -0.0859375 C6.57894401 0.54512822 8.0757213 1.4499042 10.5625 4.375 C11.16499344 7.48267696 11.03497718 10.47468019 10.875 13.625 C10.85244141 14.46546875 10.82988281 15.3059375 10.80664062 16.171875 C10.74787714 18.24034964 10.65819885 20.30790488 10.5625 22.375 C11.5525 22.375 12.5425 22.375 13.5625 22.375 C13.5625 23.365 13.5625 24.355 13.5625 25.375 C6.9375 26.625 6.9375 26.625 3.5625 24.375 C3.2325 24.705 2.9025 25.035 2.5625 25.375 C-2.04856079 25.88734009 -6.08749104 26.2428629 -10.0625 23.6875 C-11.75623273 20.83894949 -12.15151435 19.62773204 -11.4375 16.375 C-9.28929382 13.2242976 -7.66532701 11.63181267 -3.87890625 10.83984375 C-1.39196161 10.5893855 1.06407496 10.42836442 3.5625 10.375 C2.9025 8.725 2.2425 7.075 1.5625 5.375 C-3.52053686 5.26179144 -3.52053686 5.26179144 -8.4375 6.375 C-8.7675 5.055 -9.0975 3.735 -9.4375 2.375 C-6.2186231 0.481543 -3.71956365 0.05158895 0 0 Z " fill="#090909" transform="translate(340.4375,191.625)" data-index="6"/>
<path d="M0 0 C0.02505615 0.57032959 0.0501123 1.14065918 0.07592773 1.72827148 C0.19156549 4.29826157 0.31443624 6.86785527 0.4375 9.4375 C0.47681641 10.33533203 0.51613281 11.23316406 0.55664062 12.15820312 C0.61948242 13.43920898 0.61948242 13.43920898 0.68359375 14.74609375 C0.72025146 15.53685303 0.75690918 16.3276123 0.79467773 17.14233398 C0.80563257 19.01401441 0.80563257 19.01401441 2 20 C3.65 20 5.3 20 7 20 C7.33 15.38 7.66 10.76 8 6 C7.01 5.67 6.02 5.34 5 5 C5 4.01 5 3.02 5 2 C8.80043446 0.26265853 10.59714577 0 15 0 C15 7.26 15 14.52 15 22 C15.99 22 16.98 22 18 22 C18 22.99 18 23.98 18 25 C14.04 25.495 14.04 25.495 10 26 C9.67 25.01 9.34 24.02 9 23 C8.43410156 23.32226562 7.86820313 23.64453125 7.28515625 23.9765625 C4.82682109 25.07756047 3.11675577 25.32966572 0.4375 25.375 C-0.70912109 25.41753906 -0.70912109 25.41753906 -1.87890625 25.4609375 C-4 25 -4 25 -5.73828125 23.4453125 C-7.46752377 20.09390131 -7.48456843 17.25469666 -7.625 13.5 C-7.80306718 7.6712994 -7.80306718 7.6712994 -9 2 C-5.62902617 0.50178941 -3.79557881 0 0 0 Z " fill="#070707" transform="translate(189,192)" data-index="7"/>
<path d="M0 0 C3.58552881 1.63687185 4.79315055 2.68972583 7 6 C7 8.31 7 10.62 7 13 C1.72 13 -3.56 13 -9 13 C-7.34922098 16.75170424 -7.34922098 16.75170424 -5 20 C-3.14712498 20.07226502 -1.29166122 20.0838122 0.5625 20.0625 C1.57441406 20.05347656 2.58632813 20.04445312 3.62890625 20.03515625 C4.41136719 20.02355469 5.19382812 20.01195312 6 20 C5.6875 21.9375 5.6875 21.9375 5 24 C0.09793497 25.63402168 -4.88453874 25.50463334 -10 25 C-13.56921121 23.00124172 -15.76455075 20.9309749 -17 17 C-17.68666102 10.93449433 -16.43816222 7.83201177 -13 3 C-9.03889142 -0.41095461 -5.02634262 -0.7631087 0 0 Z " fill="#0C0C0C" transform="translate(318,192)" data-index="8"/>
<path d="M0 0 C4.95 0 9.9 0 15 0 C15 1.32 15 2.64 15 4 C13.68 4 12.36 4 11 4 C11 12.58 11 21.16 11 30 C18.5779832 29.96867424 18.5779832 29.96867424 20.75 26.9375 C21.1625 26.298125 21.575 25.65875 22 25 C23.32 25 24.64 25 26 25 C25.67 27.97 25.34 30.94 25 34 C16.75 34 8.5 34 0 34 C0 33.01 0 32.02 0 31 C0.99 31 1.98 31 3 31 C3 22.09 3 13.18 3 4 C2.01 4 1.02 4 0 4 C0 2.68 0 1.36 0 0 Z " fill="#0D0D0D" transform="translate(390,183)" data-index="9"/>
<path d="M0 0 C0.99 0.33 1.98 0.66 3 1 C3 2.98 3 4.96 3 7 C1.68 7 0.36 7 -1 7 C-1.66 6.01 -2.32 5.02 -3 4 C-4.32 4 -5.64 4 -7 4 C-7 4.99 -7 5.98 -7 7 C-6.38511719 7.32613281 -5.77023438 7.65226563 -5.13671875 7.98828125 C-3.92435547 8.64376953 -3.92435547 8.64376953 -2.6875 9.3125 C-1.88699219 9.74175781 -1.08648437 10.17101562 -0.26171875 10.61328125 C1.88652219 11.9304238 3.45730295 13.0115236 5 15 C4.89185368 21.05619367 4.89185368 21.05619367 2.390625 23.703125 C-0.89979421 25.48812366 -3.46777299 25.32709279 -7.1875 25.25 C-8.43917969 25.23453125 -9.69085938 25.2190625 -10.98046875 25.203125 C-14 25 -14 25 -15 24 C-15.04080783 22.00041636 -15.04254356 19.99954746 -15 18 C-13.68 18 -12.36 18 -11 18 C-10.34 18.99 -9.68 19.98 -9 21 C-5.91634129 21.2502157 -5.91634129 21.2502157 -3 21 C-3.6776211 17.9153152 -3.6776211 17.9153152 -5.9609375 16.75390625 C-7.56509079 15.96221248 -9.16925737 15.17054563 -10.7734375 14.37890625 C-13.23605876 12.85380923 -14.50347062 11.46685973 -16 9 C-16 5.60902784 -15.24000841 4.28646165 -13.0625 1.6875 C-8.73854505 -0.69508742 -4.8410762 -0.50051805 0 0 Z " fill="#0A0A0A" transform="translate(260,192)" data-index="10"/>
<path d="M0 0 C3.63 0 7.26 0 11 0 C11 10.56 11 21.12 11 32 C11.99 32 12.98 32 14 32 C14 32.99 14 33.98 14 35 C9.38 35 4.76 35 0 35 C0 34.01 0 33.02 0 32 C0.99 32 1.98 32 3 32 C2.67 23.09 2.34 14.18 2 5 C1.34 4.67 0.68 4.34 0 4 C0 2.68 0 1.36 0 0 Z " fill="#0D0D0D" transform="translate(210,182)" data-index="11"/>
<path d="M0 0 C3.3 0 6.6 0 10 0 C10 10.56 10 21.12 10 32 C11.32 32 12.64 32 14 32 C14 32.99 14 33.98 14 35 C9.38 35 4.76 35 0 35 C0 34.01 0 33.02 0 32 C0.99 32 1.98 32 3 32 C2.67 23.09 2.34 14.18 2 5 C1.34 4.67 0.68 4.34 0 4 C0 2.68 0 1.36 0 0 Z " fill="#010101" transform="translate(227,182)" data-index="12"/>
<path d="M0 0 C0.33 0.66 0.66 1.32 1 2 C1.99 1.34 2.98 0.68 4 0 C6.6875 -0.125 6.6875 -0.125 9 0 C9 2.31 9 4.62 9 7 C6.36 6.67 3.72 6.34 1 6 C1 11.28 1 16.56 1 22 C2.65 22 4.3 22 6 22 C6 22.99 6 23.98 6 25 C1.05 25 -3.9 25 -9 25 C-9 24.01 -9 23.02 -9 22 C-8.34 22 -7.68 22 -7 22 C-7.11369211 19.54066009 -7.24042651 17.0832091 -7.375 14.625 C-7.4059375 13.92632812 -7.436875 13.22765625 -7.46875 12.5078125 C-7.59499498 8.29814173 -7.59499498 8.29814173 -10 5 C-10 4.01 -10 3.02 -10 2 C-6.38026598 0.68373308 -3.90432869 0 0 0 Z " fill="#0C0B0B" transform="translate(367,192)" data-index="13"/>
<path d="M0 0 C2.73324339 -0.22161433 4.43268126 -0.3559647 6.79296875 1.125 C8.51287255 3.79669523 8.36270731 5.84852556 8.3125 9 C8.30863281 10.051875 8.30476563 11.10375 8.30078125 12.1875 C8 15 8 15 6 18 C3.4375 18.25 3.4375 18.25 1 18 C0 17 0 17 -0.09765625 13.18359375 C-0.09098089 11.60153318 -0.07901875 10.01948841 -0.0625 8.4375 C-0.05798828 7.63119141 -0.05347656 6.82488281 -0.04882812 5.99414062 C-0.03700518 3.99606244 -0.01906914 1.99802217 0 0 Z " fill="#FCFAFA" transform="translate(456,196)" data-index="14"/>
<path d="M0 0 C6 0 6 0 8.375 1.125 C10 3 10 3 10.4375 5.9375 C9.94940209 9.3541854 9.65016543 10.77728061 7 13 C3.3125 13.25 3.3125 13.25 0 13 C0 8.71 0 4.42 0 0 Z " fill="#F1EFEF" transform="translate(280,201)" data-index="15"/>
<path d="M0 0 C6 0 6 0 8.4375 1.5625 C10 4 10 4 9.875 7.625 C9 11 9 11 7 13 C3.375 13.125 3.375 13.125 0 13 C0 8.71 0 4.42 0 0 Z " fill="#EFEDED" transform="translate(159,201)" data-index="16"/>
<path d="M0 0 C6.875 0.875 6.875 0.875 8 2 C8.27314815 7.73611111 8.27314815 7.73611111 8 10 C7.34 10.66 6.68 11.32 6 12 C4.02 12 2.04 12 0 12 C0 8.04 0 4.08 0 0 Z " fill="#EFEDED" transform="translate(280,186)" data-index="17"/>
<path d="M0 0 C2.3431213 0.25561323 4.67843403 0.59270772 7 1 C8.39935013 3.79870027 8.25265405 5.90498792 8 9 C6.8125 10.875 6.8125 10.875 5 12 C3.35 12 1.7 12 0 12 C0 8.04 0 4.08 0 0 Z " fill="#F3F1F1" transform="translate(159,186)" data-index="18"/>
<path d="M0 0 C0 2.64 0 5.28 0 8 C-1.98 8 -3.96 8 -6 8 C-6.6875 5.6875 -6.6875 5.6875 -7 3 C-4.87164172 -0.24854684 -4.06968429 0 0 0 Z " fill="#E8E6E6" transform="translate(344,205)" data-index="19"/>
<path d="M0 0 C2.625 0.375 2.625 0.375 5 1 C5 2.98 5 4.96 5 7 C2.69 7 0.38 7 -2 7 C-2.125 4.625 -2.125 4.625 -2 2 C-1.34 1.34 -0.68 0.68 0 0 Z " fill="#F6F4F4" transform="translate(312,195)" data-index="20"/>
<path d="M0 0 C0 2.64 0 5.28 0 8 C-1.66611905 8.042721 -3.33382885 8.04063832 -5 8 C-6 7 -6 7 -6.25 4.5625 C-6.1675 3.716875 -6.085 2.87125 -6 2 C-3 0 -3 0 0 0 Z " fill="#F7F5F5" transform="translate(433,205)" data-index="21"/>
</svg>